<mxfile host="app.diagrams.net" modified="2024-03-11T07:35:16.589Z" agent="Mozilla/5.0 (Windows NT 10.0; Win64; x64; rv:123.0) Gecko/20100101 Firefox/123.0" etag="F8n9KoZi0v51vIcbV2pC" version="24.0.4" type="github">
  <diagram name="第 1 页" id="8DhSa-wHzM5hWvHh5cKT">
    <mxGraphModel dx="1085" dy="487" grid="1" gridSize="10" guides="1" tooltips="1" connect="1" arrows="1" fold="1" page="1" pageScale="1" pageWidth="827" pageHeight="1169" math="0" shadow="0">
      <root>
        <mxCell id="0" />
        <mxCell id="1" parent="0" />
        <mxCell id="YzRAme1j03ho8KpyolDc-6" value="" style="rounded=0;whiteSpace=wrap;html=1;strokeColor=#66FF66;" vertex="1" parent="1">
          <mxGeometry x="123.75" y="120" width="220" height="130" as="geometry" />
        </mxCell>
        <mxCell id="YzRAme1j03ho8KpyolDc-1" value="" style="verticalLabelPosition=bottom;html=1;verticalAlign=top;align=center;strokeColor=none;fillColor=#00BEF2;shape=mxgraph.azure.code_file;pointerEvents=1;" vertex="1" parent="1">
          <mxGeometry x="140" y="180" width="47.5" height="50" as="geometry" />
        </mxCell>
        <mxCell id="YzRAme1j03ho8KpyolDc-2" value="" style="verticalLabelPosition=bottom;html=1;verticalAlign=top;align=center;strokeColor=none;fillColor=#00BEF2;shape=mxgraph.azure.code_file;pointerEvents=1;" vertex="1" parent="1">
          <mxGeometry x="210" y="180" width="47.5" height="50" as="geometry" />
        </mxCell>
        <mxCell id="YzRAme1j03ho8KpyolDc-4" value="" style="verticalLabelPosition=bottom;html=1;verticalAlign=top;align=center;strokeColor=none;fillColor=#00BEF2;shape=mxgraph.azure.code_file;pointerEvents=1;" vertex="1" parent="1">
          <mxGeometry x="280" y="180" width="47.5" height="50" as="geometry" />
        </mxCell>
        <mxCell id="YzRAme1j03ho8KpyolDc-5" value="PHP 代码文件" style="text;strokeColor=none;align=center;fillColor=none;html=1;verticalAlign=middle;whiteSpace=wrap;rounded=0;" vertex="1" parent="1">
          <mxGeometry x="110" y="130" width="240" height="30" as="geometry" />
        </mxCell>
        <mxCell id="YzRAme1j03ho8KpyolDc-7" value="" style="rounded=0;whiteSpace=wrap;html=1;strokeColor=#66FF66;" vertex="1" parent="1">
          <mxGeometry x="453.75" y="120" width="220" height="130" as="geometry" />
        </mxCell>
        <mxCell id="YzRAme1j03ho8KpyolDc-8" value="代码预处理" style="text;strokeColor=none;align=center;fillColor=none;html=1;verticalAlign=middle;whiteSpace=wrap;rounded=0;" vertex="1" parent="1">
          <mxGeometry x="440" y="130" width="240" height="30" as="geometry" />
        </mxCell>
        <mxCell id="YzRAme1j03ho8KpyolDc-9" value="" style="shape=image;html=1;verticalAlign=top;verticalLabelPosition=bottom;labelBackgroundColor=#ffffff;imageAspect=0;aspect=fixed;image=https://cdn2.iconfinder.com/data/icons/coronavirus-protective-measures-highlight/128/button-Disinfect-surfaces-coronavirus_protective_measures-clean-128.png" vertex="1" parent="1">
          <mxGeometry x="593" y="170" width="58" height="58" as="geometry" />
        </mxCell>
        <mxCell id="YzRAme1j03ho8KpyolDc-10" value="" style="sketch=0;aspect=fixed;pointerEvents=1;shadow=0;dashed=0;html=1;strokeColor=none;labelPosition=center;verticalLabelPosition=bottom;verticalAlign=top;align=center;fillColor=#00188D;shape=mxgraph.mscae.enterprise.filter" vertex="1" parent="1">
          <mxGeometry x="538" y="176.5" width="50" height="45" as="geometry" />
        </mxCell>
        <mxCell id="YzRAme1j03ho8KpyolDc-11" value="" style="sketch=0;html=1;aspect=fixed;strokeColor=none;shadow=0;fillColor=#3B8DF1;verticalAlign=top;labelPosition=center;verticalLabelPosition=bottom;shape=mxgraph.gcp2.check_available" vertex="1" parent="1">
          <mxGeometry x="473" y="176.5" width="50" height="43.5" as="geometry" />
        </mxCell>
        <mxCell id="YzRAme1j03ho8KpyolDc-12" value="验证" style="text;strokeColor=none;align=center;fillColor=none;html=1;verticalAlign=middle;whiteSpace=wrap;rounded=0;" vertex="1" parent="1">
          <mxGeometry x="463" y="220" width="60" height="30" as="geometry" />
        </mxCell>
        <mxCell id="YzRAme1j03ho8KpyolDc-13" value="过滤" style="text;strokeColor=none;align=center;fillColor=none;html=1;verticalAlign=middle;whiteSpace=wrap;rounded=0;" vertex="1" parent="1">
          <mxGeometry x="533" y="220" width="60" height="30" as="geometry" />
        </mxCell>
        <mxCell id="YzRAme1j03ho8KpyolDc-14" value="清洗" style="text;strokeColor=none;align=center;fillColor=none;html=1;verticalAlign=middle;whiteSpace=wrap;rounded=0;" vertex="1" parent="1">
          <mxGeometry x="597.5" y="220" width="60" height="30" as="geometry" />
        </mxCell>
        <mxCell id="YzRAme1j03ho8KpyolDc-16" value="" style="rounded=0;whiteSpace=wrap;html=1;strokeColor=#66FF66;" vertex="1" parent="1">
          <mxGeometry x="453.5" y="350" width="220" height="130" as="geometry" />
        </mxCell>
        <mxCell id="YzRAme1j03ho8KpyolDc-17" value="特征处理" style="text;strokeColor=none;align=center;fillColor=none;html=1;verticalAlign=middle;whiteSpace=wrap;rounded=0;" vertex="1" parent="1">
          <mxGeometry x="443.75" y="360" width="240" height="30" as="geometry" />
        </mxCell>
        <mxCell id="YzRAme1j03ho8KpyolDc-21" value="统计特征" style="text;strokeColor=none;align=center;fillColor=none;html=1;verticalAlign=middle;whiteSpace=wrap;rounded=0;" vertex="1" parent="1">
          <mxGeometry x="462.75" y="450" width="60" height="30" as="geometry" />
        </mxCell>
        <mxCell id="YzRAme1j03ho8KpyolDc-22" value="实体图" style="text;strokeColor=none;align=center;fillColor=none;html=1;verticalAlign=middle;whiteSpace=wrap;rounded=0;" vertex="1" parent="1">
          <mxGeometry x="532.75" y="450" width="60" height="30" as="geometry" />
        </mxCell>
        <mxCell id="YzRAme1j03ho8KpyolDc-23" value="语法逻辑" style="text;strokeColor=none;align=center;fillColor=none;html=1;verticalAlign=middle;whiteSpace=wrap;rounded=0;" vertex="1" parent="1">
          <mxGeometry x="598.25" y="450" width="60" height="30" as="geometry" />
        </mxCell>
        <mxCell id="YzRAme1j03ho8KpyolDc-24" value="" style="image;html=1;image=img/lib/clip_art/finance/Pie_Chart_128x128.png" vertex="1" parent="1">
          <mxGeometry x="469" y="400" width="50" height="50" as="geometry" />
        </mxCell>
        <mxCell id="YzRAme1j03ho8KpyolDc-25" value="" style="image;aspect=fixed;html=1;points=[];align=center;fontSize=12;image=img/lib/azure2/management_governance/Resource_Graph_Explorer.svg;" vertex="1" parent="1">
          <mxGeometry x="539.25" y="405.11" width="47" height="44.89" as="geometry" />
        </mxCell>
        <mxCell id="YzRAme1j03ho8KpyolDc-26" value="" style="sketch=0;points=[[0,0,0],[0.25,0,0],[0.5,0,0],[0.75,0,0],[1,0,0],[0,1,0],[0.25,1,0],[0.5,1,0],[0.75,1,0],[1,1,0],[0,0.25,0],[0,0.5,0],[0,0.75,0],[1,0.25,0],[1,0.5,0],[1,0.75,0]];outlineConnect=0;fontColor=#232F3E;fillColor=#7AA116;strokeColor=#ffffff;dashed=0;verticalLabelPosition=bottom;verticalAlign=top;align=center;html=1;fontSize=12;fontStyle=0;aspect=fixed;shape=mxgraph.aws4.resourceIcon;resIcon=mxgraph.aws4.iot_things_graph;" vertex="1" parent="1">
          <mxGeometry x="604.25" y="402" width="48" height="48" as="geometry" />
        </mxCell>
        <mxCell id="YzRAme1j03ho8KpyolDc-27" value="" style="rounded=0;whiteSpace=wrap;html=1;strokeColor=#66FF66;" vertex="1" parent="1">
          <mxGeometry x="123.75" y="350" width="220" height="130" as="geometry" />
        </mxCell>
        <mxCell id="YzRAme1j03ho8KpyolDc-28" value="多模型加权检测" style="text;strokeColor=none;align=center;fillColor=none;html=1;verticalAlign=middle;whiteSpace=wrap;rounded=0;" vertex="1" parent="1">
          <mxGeometry x="110" y="360" width="240" height="30" as="geometry" />
        </mxCell>
        <mxCell id="YzRAme1j03ho8KpyolDc-29" value="机器学习" style="text;strokeColor=none;align=center;fillColor=none;html=1;verticalAlign=middle;whiteSpace=wrap;rounded=0;" vertex="1" parent="1">
          <mxGeometry x="133" y="450" width="60" height="30" as="geometry" />
        </mxCell>
        <mxCell id="YzRAme1j03ho8KpyolDc-30" value="图分析" style="text;strokeColor=none;align=center;fillColor=none;html=1;verticalAlign=middle;whiteSpace=wrap;rounded=0;" vertex="1" parent="1">
          <mxGeometry x="203" y="450" width="60" height="30" as="geometry" />
        </mxCell>
        <mxCell id="YzRAme1j03ho8KpyolDc-31" value="语法分析" style="text;strokeColor=none;align=center;fillColor=none;html=1;verticalAlign=middle;whiteSpace=wrap;rounded=0;" vertex="1" parent="1">
          <mxGeometry x="268.5" y="450" width="60" height="30" as="geometry" />
        </mxCell>
        <mxCell id="YzRAme1j03ho8KpyolDc-35" value="" style="sketch=0;points=[[0,0,0],[0.25,0,0],[0.5,0,0],[0.75,0,0],[1,0,0],[0,1,0],[0.25,1,0],[0.5,1,0],[0.75,1,0],[1,1,0],[0,0.25,0],[0,0.5,0],[0,0.75,0],[1,0.25,0],[1,0.5,0],[1,0.75,0]];outlineConnect=0;fontColor=#232F3E;fillColor=#01A88D;strokeColor=#ffffff;dashed=0;verticalLabelPosition=bottom;verticalAlign=top;align=center;html=1;fontSize=12;fontStyle=0;aspect=fixed;shape=mxgraph.aws4.resourceIcon;resIcon=mxgraph.aws4.augmented_ai;" vertex="1" parent="1">
          <mxGeometry x="139" y="401" width="48" height="48" as="geometry" />
        </mxCell>
        <mxCell id="YzRAme1j03ho8KpyolDc-36" value="" style="sketch=0;outlineConnect=0;fontColor=#232F3E;gradientColor=none;fillColor=#8C4FFF;strokeColor=none;dashed=0;verticalLabelPosition=bottom;verticalAlign=top;align=center;html=1;fontSize=12;fontStyle=0;aspect=fixed;pointerEvents=1;shape=mxgraph.aws4.virtual_node;" vertex="1" parent="1">
          <mxGeometry x="209" y="401" width="48" height="48" as="geometry" />
        </mxCell>
        <mxCell id="YzRAme1j03ho8KpyolDc-37" value="" style="sketch=0;points=[[0.015,0.015,0],[0.985,0.015,0],[0.985,0.985,0],[0.015,0.985,0],[0.25,0,0],[0.5,0,0],[0.75,0,0],[1,0.25,0],[1,0.5,0],[1,0.75,0],[0.75,1,0],[0.5,1,0],[0.25,1,0],[0,0.75,0],[0,0.5,0],[0,0.25,0]];verticalLabelPosition=bottom;html=1;verticalAlign=top;aspect=fixed;align=center;pointerEvents=1;shape=mxgraph.cisco19.rect;prIcon=flow_analytics2;fillColor=#FAFAFA;strokeColor=#005073;" vertex="1" parent="1">
          <mxGeometry x="277.5" y="399" width="50" height="50" as="geometry" />
        </mxCell>
        <mxCell id="YzRAme1j03ho8KpyolDc-38" value="" style="sketch=0;html=1;aspect=fixed;strokeColor=none;shadow=0;fillColor=#66FF66;verticalAlign=top;labelPosition=center;verticalLabelPosition=bottom;shape=mxgraph.gcp2.arrow_cycle" vertex="1" parent="1">
          <mxGeometry x="348" y="255" width="100" height="95" as="geometry" />
        </mxCell>
      </root>
    </mxGraphModel>
  </diagram>
</mxfile>
